HIERARCHY
ROOT Hips
{
 OFFSET 0.000000 0.000000 0.000000
 CHANNELS 6 Xposition Yposition Zposition Yrotation Xrotation Zrotation
 JOINT Chest
 {
  OFFSET 0.000000 9.968492 -0.001267
  CHANNELS 3 Yrotation Xrotation Zrotation
  JOINT Chest2
  {
   OFFSET 0.000000 10.967159 0.002301
   CHANNELS 3 Yrotation Xrotation Zrotation
   JOINT Chest3
   {
    OFFSET 0.000000 9.909283 0.000000
    CHANNELS 3 Yrotation Xrotation Zrotation
    JOINT Chest4
    {
     OFFSET 0.000000 9.909283 0.000000
     CHANNELS 3 Yrotation Xrotation Zrotation
     JOINT Neck
     {
      OFFSET 0.000000 13.946294 0.000000
      CHANNELS 3 Yrotation Xrotation Zrotation
      JOINT Head
      {
       OFFSET 0.000000 9.224544 0.005472
       CHANNELS 3 Yrotation Xrotation Zrotation
       End Site
       {
        OFFSET 0.000000 17.643221 0.002858
       }
      }
     }
     JOINT RightCollar
     {
      OFFSET -3.037229 7.783075 0.000000
      CHANNELS 3 Yrotation Xrotation Zrotation
      JOINT RightShoulder
      {
       OFFSET -14.223264 0.000000 0.000000
       CHANNELS 3 Yrotation Xrotation Zrotation
       JOINT RightElbow
       {
        OFFSET 0.000000 -30.459151 0.000000
        CHANNELS 3 Yrotation Xrotation Zrotation
        JOINT RightWrist
        {
         OFFSET 0.000000 -24.900006 -0.000000
         CHANNELS 3 Yrotation Xrotation Zrotation
         End Site
         {
          OFFSET 0.000000 -18.592915 0.000000
         }
        }
       }
      }
     }
     JOINT LeftCollar
     {
      OFFSET 3.037229 7.783075 0.000000
      CHANNELS 3 Yrotation Xrotation Zrotation
      JOINT LeftShoulder
      {
       OFFSET 14.223264 0.000000 0.000000
       CHANNELS 3 Yrotation Xrotation Zrotation
       JOINT LeftElbow
       {
        OFFSET 0.000000 -30.459151 0.000000
        CHANNELS 3 Yrotation Xrotation Zrotation
        JOINT LeftWrist
        {
         OFFSET 0.000000 -24.900006 -0.000000
         CHANNELS 3 Yrotation Xrotation Zrotation
         End Site
         {
          OFFSET 0.000000 -18.592915 0.000000
         }
        }
       }
      }
     }
    }
   }
  }
 }
 JOINT RightHip
 {
  OFFSET -8.105589 0.006207 0.000633
  CHANNELS 3 Yrotation Xrotation Zrotation
  JOINT RightKnee
  {
   OFFSET 0.000000 -42.037588 -0.000599
   CHANNELS 3 Yrotation Xrotation Zrotation
   JOINT RightAnkle
   {
    OFFSET 0.000000 -41.031088 -0.001013
    CHANNELS 3 Yrotation Xrotation Zrotation
    JOINT RightToe
    {
     OFFSET 0.000000 -7.217244 16.396997
     CHANNELS 3 Yrotation Xrotation Zrotation
     End Site
     {
      OFFSET 0.000000 -1.535852 6.674588
     }
    }
   }
  }
 }
 JOINT LeftHip
 {
  OFFSET 8.105589 0.006207 0.000633
  CHANNELS 3 Yrotation Xrotation Zrotation
  JOINT LeftKnee
  {
   OFFSET 0.000000 -42.037588 -0.000599
   CHANNELS 3 Yrotation Xrotation Zrotation
   JOINT LeftAnkle
   {
    OFFSET 0.000000 -41.031088 -0.001013
    CHANNELS 3 Yrotation Xrotation Zrotation
    JOINT LeftToe
    {
     OFFSET 0.000000 -7.217244 16.396997
     CHANNELS 3 Yrotation Xrotation Zrotation
     End Site
     {
      OFFSET 0.000000 -1.535852 6.674588
     }
    }
   }
  }
 }
}
MOTION
Frames: 17
Frame Time: 0.008333
-11.917390 92.705259 133.690174 61.228161 -7.691728 5.107475 -2.272798 4.566748 -0.106519 -1.008649 2.028408 -0.022955 -1.008649 2.028408 -0.022955 -0.756331 1.521349 -0.013866 -11.261745 26.037475 3.674242 -13.656871 3.491189 6.783450 -10.750369 6.180447 7.488799 4.665237 -7.488552 -11.661326 40.404123 4.602162 -2.217796 1.209312 1.279064 -21.787721 4.080793 7.474896 -8.486257 4.312747 -4.007733 3.467534 -19.721461 -1.965968 7.583479 -0.154169 -3.903783 26.282492 -2.046221 10.092211 -5.257282 -3.693361 3.475700 1.902872 0.735128 -5.372922 0.845603 -0.003183 0.109071 0.063358 3.896579 2.941627 5.208934 3.999867 21.642926 0.486130 -3.841097 -8.366308 -9.533555 -0.077338 -2.687956 -1.312973
-12.096072 92.731782 133.391128 61.562980 -7.766268 5.166207 -2.327342 4.550058 -0.136077 -1.031461 2.020875 -0.033870 -1.031461 2.020875 -0.033870 -0.773404 1.515719 -0.021988 -11.275720 26.063076 3.672162 -13.673774 3.525889 6.784520 -10.749561 6.177629 7.450871 4.438596 -7.446514 -11.621119 40.378995 4.719396 -2.194723 1.208314 1.282212 -21.758708 4.046429 7.453787 -8.480478 4.151514 -4.096904 3.522648 -19.552962 -2.192231 7.495716 -0.167126 -3.894425 26.295287 -2.185608 9.983481 -5.440554 -3.757488 3.465355 1.892314 0.656506 -5.206643 0.937638 -0.004092 0.099208 0.070895 3.774188 3.463706 5.423354 3.859223 22.171594 0.503750 -3.961214 -8.525422 -9.507713 -0.077843 -2.815782 -1.281004
-12.268338 92.755583 133.082941 61.902020 -7.841319 5.226237 -2.378014 4.538060 -0.165170 -1.054113 2.014825 -0.046064 -1.054113 2.014825 -0.046064 -0.790351 1.511204 -0.031068 -11.294016 26.086025 3.671048 -13.696103 3.558014 6.787806 -10.745446 6.173478 7.429543 4.250343 -7.403398 -11.591119 40.342980 4.819228 -2.179326 1.214186 1.295196 -21.720600 4.014163 7.421784 -8.476998 3.969806 -4.188837 3.587633 -19.437240 -2.457809 7.398248 -0.176374 -3.893483 26.314117 -2.333972 9.875598 -5.631374 -3.828815 3.454583 1.873794 0.583722 -5.045956 1.029094 -0.005660 0.095237 0.086464 3.622118 3.996448 5.638609 3.691730 22.696447 0.503264 -4.196315 -8.681750 -9.440600 -0.074436 -2.944336 -1.255643
-12.436151 92.776610 132.766171 62.249039 -7.916018 5.283235 -2.427399 4.516820 -0.195228 -1.074898 2.006176 -0.057812 -1.074898 2.006176 -0.057812 -0.805901 1.504739 -0.039825 -11.320135 26.106355 3.669291 -13.727651 3.588001 6.792340 -10.739176 6.190122 7.398098 4.104248 -7.366082 -11.578094 40.290614 4.892519 -2.159549 1.232492 1.296551 -21.680842 3.972075 7.398552 -8.488507 3.768605 -4.275663 3.677975 -19.393406 -2.753192 7.294985 -0.181280 -3.895313 26.326994 -2.506751 9.765821 -5.836312 -3.897335 3.446413 1.865573 0.528711 -4.888218 1.116019 -0.006862 0.092433 0.102933 3.458045 4.511414 5.844494 3.521471 23.227007 0.501612 -4.347129 -8.797995 -9.393283 -0.074088 -3.057989 -1.222745
-12.599199 92.794291 132.442267 62.597119 -7.989057 5.337965 -2.470896 4.499918 -0.224038 -1.094336 1.997758 -0.069040 -1.094336 1.997758 -0.069040 -0.820443 1.498447 -0.048196 -11.348262 26.121178 3.668508 -13.761774 3.611396 6.798521 -10.738379 6.191354 7.367354 3.998211 -7.304409 -11.562349 40.235387 4.951069 -2.144293 1.242475 1.298183 -21.640848 3.925383 7.368811 -8.505559 3.572626 -4.369962 3.775673 -19.409767 -3.080464 7.182233 -0.190698 -3.910094 26.359192 -2.681937 9.658837 -6.043478 -3.962175 3.423497 1.859418 0.465595 -4.720997 1.200214 -0.008990 0.089813 0.119685 3.268918 5.021723 6.062019 3.364338 23.775855 0.485986 -4.587808 -8.924893 -9.308427 -0.068234 -3.160268 -1.199995
-12.756393 92.809974 132.110009 62.944785 -8.060655 5.383585 -2.514118 4.476486 -0.252902 -1.112003 1.988416 -0.081210 -1.112003 1.988416 -0.081210 -0.833654 1.491466 -0.057282 -11.377673 26.136364 3.670808 -13.798316 3.635803 6.808574 -10.739474 6.193908 7.344719 3.946627 -7.237010 -11.560207 40.166767 4.995506 -2.134341 1.264101 1.298309 -21.609480 3.881367 7.331968 -8.512413 3.361692 -4.469812 3.882664 -19.485417 -3.420926 7.054875 -0.185262 -3.917264 26.394312 -2.857588 9.551448 -6.253708 -4.025576 3.407346 1.855818 0.405717 -4.560737 1.286411 -0.010306 0.087776 0.137801 3.079890 5.519822 6.288544 3.210381 24.314033 0.453783 -4.775881 -9.000044 -9.222581 -0.067466 -3.254888 -1.176689
-12.912544 92.823203 131.769753 63.292868 -8.130558 5.425150 -2.551926 4.455708 -0.276789 -1.129550 1.979426 -0.093763 -1.129550 1.979426 -0.093763 -0.846774 1.484749 -0.066656 -11.402304 26.149423 3.677378 -13.830213 3.657186 6.822340 -10.731875 6.197292 7.329810 3.923782 -7.167366 -11.560204 40.110331 5.028485 -2.130824 1.275330 1.292419 -21.573851 3.846161 7.288421 -8.520580 3.142718 -4.576809 3.995657 -19.599314 -3.794263 6.923074 -0.187498 -3.935615 26.438460 -3.039327 9.450600 -6.461340 -4.081487 3.369589 1.842305 0.348129 -4.390293 1.377494 -0.010347 0.087920 0.156122 2.871675 6.015815 6.522199 3.084717 24.855767 0.420272 -4.963871 -9.033138 -9.125643 -0.064646 -3.359714 -1.164793
-13.065795 92.833935 131.419300 63.640456 -8.199306 5.462361 -2.591616 4.429269 -0.305627 -1.146064 1.968885 -0.106568 -1.146064 1.968885 -0.106568 -0.859120 1.476870 -0.076225 -11.424831 26.158961 3.684821 -13.859732 3.673829 6.836591 -10.721979 6.193683 7.314278 3.932292 -7.091902 -11.563594 40.048904 5.049827 -2.146236 1.298345 1.291454 -21.535340 3.816071 7.251976 -8.537013 2.910362 -4.696089 4.128772 -19.756412 -4.179077 6.775884 -0.185038 -3.944901 26.493268 -3.217175 9.344809 -6.672065 -4.133152 3.338353 1.827643 0.280573 -4.221085 1.475156 -0.011482 0.087797 0.172173 2.656106 6.499994 6.753203 2.969585 25.386439 0.378463 -5.180796 -9.041318 -8.998927 -0.064910 -3.444265 -1.156173
-13.219722 92.842081 131.058689 63.992581 -8.264516 5.496493 -2.628302 4.402892 -0.327356 -1.162814 1.957811 -0.118515 -1.162814 1.957811 -0.118515 -0.871646 1.468590 -0.085152 -11.446725 26.170276 3.691092 -13.888214 3.692532 6.849327 -10.710754 6.193650 7.299546 3.963155 -7.032109 -11.577493 40.004259 5.051616 -2.143418 1.317157 1.293240 -21.515526 3.780088 7.211402 -8.564398 2.684390 -4.822518 4.272338 -19.932322 -4.608310 6.625332 -0.190936 -3.951006 26.545896 -3.389089 9.243010 -6.884451 -4.187170 3.287870 1.811231 0.211676 -4.042195 1.574356 -0.011906 0.090337 0.189345 2.427060 6.969896 6.988949 2.906747 25.925789 0.347139 -5.517544 -9.002539 -8.806294 -0.064109 -3.552134 -1.172096
-13.374761 92.846585 130.686277 64.341549 -8.323376 5.524338 -2.667600 4.370579 -0.354377 -1.179352 1.945071 -0.129428 -1.179352 1.945071 -0.129428 -0.884017 1.459060 -0.093307 -11.465512 26.181002 3.698556 -13.913257 3.710112 6.862652 -10.705803 6.187581 7.279556 4.031177 -6.976497 -11.588860 39.968671 5.050926 -2.150140 1.324398 1.291883 -21.487806 3.747446 7.165747 -8.585924 2.457314 -4.946133 4.413804 -20.155414 -5.042487 6.473155 -0.189207 -3.963310 26.598287 -3.567477 9.131592 -7.107298 -4.233496 3.236434 1.810790 0.149019 -3.859826 1.671596 -0.012890 0.093875 0.203131 2.185525 7.422126 7.225457 2.871488 26.446470 0.301719 -5.809376 -8.931079 -8.615489 -0.065042 -3.622032 -1.174713
-13.531771 92.848341 130.304779 64.697423 -8.377899 5.543696 -2.703831 4.341504 -0.367356 -1.196334 1.932054 -0.137953 -1.196334 1.932054 -0.137953 -0.896729 1.449317 -0.099672 -11.483016 26.192463 3.701901 -13.935640 3.727996 6.870903 -10.685536 6.173505 7.258269 4.100262 -6.939697 -11.600053 39.946860 5.045637 -2.155491 1.325426 1.292247 -21.466949 3.723204 7.107884 -8.629598 2.224220 -5.075911 4.568006 -20.388563 -5.516788 6.314441 -0.182488 -3.971911 26.650010 -3.728291 9.016111 -7.325338 -4.299535 3.184138 1.810792 0.087223 -3.676016 1.772029 -0.013229 0.099257 0.215488 1.957616 7.858744 7.476824 2.877131 26.973736 0.276940 -5.986939 -8.805960 -8.490239 -0.061397 -3.686619 -1.164576
-13.691490 92.847648 129.910492 65.048888 -8.429486 5.559633 -2.745816 4.303879 -0.391257 -1.214676 1.916741 -0.146975 -1.214676 1.916741 -0.146975 -0.910461 1.437855 -0.106410 -11.492893 26.208858 3.701417 -13.947857 3.750547 6.872788 -10.662150 6.159094 7.240498 4.194297 -6.905124 -11.622767 39.923226 5.032497 -2.166125 1.328526 1.282588 -21.446464 3.709994 7.053512 -8.671670 1.986448 -5.206106 4.728825 -20.649121 -5.992900 6.142634 -0.182632 -3.987069 26.713761 -3.883417 8.883746 -7.553553 -4.361651 3.150946 1.820979 0.026176 -3.493292 1.875920 -0.013931 0.102272 0.224172 1.747584 8.289050 7.732285 2.912252 27.460936 0.236247 -6.089233 -8.637692 -8.387308 -0.060686 -3.709905 -1.140994
-13.855212 92.844231 129.506607 65.406299 -8.477126 5.566921 -2.787206 4.270677 -0.402587 -1.233991 1.901826 -0.153944 -1.233991 1.901826 -0.153944 -0.924929 1.426687 -0.111606 -11.497184 26.227754 3.700593 -13.953277 3.775359 6.872855 -10.637701 6.136878 7.219549 4.292446 -6.892297 -11.641064 39.904883 5.005991 -2.173374 1.332563 1.276960 -21.433502 3.703824 6.996507 -8.717743 1.760300 -5.338033 4.880357 -20.922650 -6.516791 5.977605 -0.181402 -3.996554 26.764850 -4.031419 8.750831 -7.777471 -4.427594 3.105963 1.831886 -0.039455 -3.302043 1.980759 -0.013116 0.107039 0.233714 1.557485 8.700809 7.993247 2.996477 27.948814 0.232776 -6.386319 -8.471061 -8.200697 -0.060689 -3.728051 -1.145452
-14.022411 92.838431 129.088073 65.761854 -8.521216 5.573086 -2.826994 4.228982 -0.423735 -1.251679 1.884337 -0.161908 -1.251679 1.884337 -0.161908 -0.938175 1.413591 -0.117560 -11.506773 26.247707 3.695811 -13.964052 3.801977 6.869698 -10.618708 6.117702 7.204507 4.386017 -6.889852 -11.673925 39.892706 4.968778 -2.184641 1.336713 1.269277 -21.422178 3.686422 6.943418 -8.757500 1.544039 -5.469351 5.027126 -21.230977 -7.044029 5.808598 -0.184571 -4.003267 26.831679 -4.173905 8.602705 -8.014803 -4.480825 3.073892 1.852198 -0.109489 -3.107233 2.093214 -0.014168 0.109068 0.238515 1.389711 9.094837 8.246212 3.104750 28.414208 0.231070 -6.568510 -8.265665 -8.060086 -0.062422 -3.711912 -1.128097
-14.193184 92.830792 128.658062 66.121509 -8.563763 5.572629 -2.869341 4.190835 -0.432234 -1.271174 1.867592 -0.167282 -1.271174 1.867592 -0.167282 -0.952785 1.401050 -0.121565 -11.510730 26.272711 3.682896 -13.965896 3.833285 6.855718 -10.598283 6.089706 7.188493 4.483376 -6.907971 -11.709608 39.886114 4.915803 -2.197719 1.329949 1.264274 -21.416924 3.678713 6.890301 -8.802984 1.326513 -5.598861 5.169530 -21.534302 -7.614824 5.633087 -0.181952 -3.994310 26.891086 -4.302400 8.455323 -8.246147 -4.549775 3.032723 1.864214 -0.180305 -2.901833 2.214680 -0.014240 0.111089 0.242994 1.245072 9.471184 8.490088 3.229445 28.875958 0.265515 -6.640576 -7.988997 -7.966648 -0.061184 -3.712485 -1.113612
-14.367692 92.820137 128.213742 66.481949 -8.605914 5.567693 -2.908620 4.144929 -0.446646 -1.288812 1.847464 -0.172125 -1.288812 1.847464 -0.172125 -0.966005 1.385968 -0.125186 -11.519321 26.303432 3.661085 -13.971053 3.871743 6.832637 -10.590282 6.069117 7.160488 4.578919 -6.938491 -11.741215 39.877609 4.862963 -2.208134 1.322352 1.251596 -21.417309 3.664664 6.843335 -8.847669 1.104247 -5.730460 5.303820 -21.851964 -8.177895 5.465047 -0.164090 -3.994202 26.919820 -4.419426 8.292020 -8.481133 -4.617072 3.014683 1.874130 -0.257139 -2.697088 2.345487 -0.014959 0.110191 0.246650 1.106588 9.834079 8.717007 3.372867 29.314433 0.308069 -6.654970 -7.697044 -7.889872 -0.060436 -3.673206 -1.089332
-14.548442 92.807043 127.760662 66.843416 -8.643725 5.554995 -2.947167 4.102326 -0.450903 -1.306770 1.828581 -0.174927 -1.306770 1.828581 -0.174927 -0.979471 1.371817 -0.127274 -11.526718 26.334679 3.635429 -13.973728 3.910292 6.804818 -10.578415 6.046244 7.147958 4.665250 -6.997902 -11.788353 39.866775 4.787925 -2.224148 1.318802 1.235321 -21.416816 3.653297 6.795281 -8.892002 0.884299 -5.861323 5.430020 -22.129200 -8.786031 5.291725 -0.172065 -3.991246 26.930880 -4.529194 8.125737 -8.703822 -4.686916 2.985319 1.870957 -0.342514 -2.480597 2.478874 -0.012038 0.110086 0.254733 0.977758 10.177293 8.930427 3.551817 29.744939 0.388822 -6.570588 -7.345085 -7.862635 -0.056758 -3.641119 -1.064719
